solid Rasp Pi TFT
facet normal 0.0 -1.0 -5.551115123125783e-16
  outer loop
    vertex 103.38765167873281 -5.907652786793011 29.862862885441583
    vertex 111.88765167873282 -5.907652786793016 35.86286288544158
    vertex 103.38765167873281 -5.907652786793025 53.86286288544158
  endloop
endfacet
facet normal 0.0 -1.0 -5.551115123125783e-16
  outer loop
    vertex 111.88765167873282 -5.907652786793016 35.86286288544158
    vertex 103.38765167873281 -5.907652786793011 29.862862885441583
    vertex 128.38765167873282 -5.907652786793011 29.862862885441583
  endloop
endfacet
facet normal 0.0 -1.0 -5.551115123125783e-16
  outer loop
    vertex 111.88765167873282 -5.907652786793016 35.86286288544158
    vertex 128.38765167873282 -5.907652786793011 29.862862885441583
    vertex 119.88765167873281 -5.907652786793016 35.86286288544158
  endloop
endfacet
facet normal 0.0 -1.0 -5.551115123125783e-16
  outer loop
    vertex 119.88765167873281 -5.907652786793016 35.86286288544158
    vertex 128.38765167873282 -5.907652786793011 29.862862885441583
    vertex 119.88765167873281 -5.90765278679302 43.86286288544158
  endloop
endfacet
facet normal 0.0 -1.0 -5.551115123125783e-16
  outer loop
    vertex 103.38765167873281 -5.907652786793025 53.86286288544158
    vertex 111.88765167873282 -5.90765278679302 43.86286288544158
    vertex 128.38765167873282 -5.907652786793025 53.86286288544158
  endloop
endfacet
facet normal 0.0 -1.0 -5.551115123125783e-16
  outer loop
    vertex 111.88765167873282 -5.90765278679302 43.86286288544158
    vertex 103.38765167873281 -5.907652786793025 53.86286288544158
    vertex 111.88765167873282 -5.907652786793016 35.86286288544158
  endloop
endfacet
facet normal 0.0 -1.0 -5.551115123125783e-16
  outer loop
    vertex 128.38765167873282 -5.907652786793025 53.86286288544158
    vertex 111.88765167873282 -5.90765278679302 43.86286288544158
    vertex 119.88765167873281 -5.90765278679302 43.86286288544158
  endloop
endfacet
facet normal 0.0 -1.0 -5.551115123125783e-16
  outer loop
    vertex 128.38765167873282 -5.907652786793025 53.86286288544158
    vertex 119.88765167873281 -5.90765278679302 43.86286288544158
    vertex 128.38765167873282 -5.907652786793011 29.862862885441583
  endloop
endfacet
facet normal 0.0 5.551115123125783e-16 -1.0
  outer loop
    vertex 119.88765167873281 -9.407652786793015 35.86286288544158
    vertex 111.88765167873282 -5.907652786793016 35.86286288544158
    vertex 119.88765167873281 -5.907652786793016 35.86286288544158
  endloop
endfacet
facet normal 0.0 5.551115123125783e-16 -1.0
  outer loop
    vertex 111.88765167873282 -5.907652786793016 35.86286288544158
    vertex 119.88765167873281 -9.407652786793015 35.86286288544158
    vertex 111.88765167873282 -9.407652786793015 35.86286288544158
  endloop
endfacet
facet normal 0.0 1.0 5.551115123125783e-16
  outer loop
    vertex 128.38765167873282 -4.407652786793026 53.86286288544158
    vertex 103.38765167873281 -4.407652786793013 29.862862885441583
    vertex 103.38765167873281 -4.407652786793026 53.86286288544158
  endloop
endfacet
facet normal 0.0 1.0 5.551115123125783e-16
  outer loop
    vertex 103.38765167873281 -4.407652786793013 29.862862885441583
    vertex 128.38765167873282 -4.407652786793026 53.86286288544158
    vertex 128.38765167873282 -4.407652786793013 29.862862885441583
  endloop
endfacet
facet normal -0.0 5.551115123125783e-16 -1.0
  outer loop
    vertex 128.38765167873282 -5.907652786793011 29.862862885441583
    vertex 103.38765167873281 -4.407652786793013 29.862862885441583
    vertex 128.38765167873282 -4.407652786793013 29.862862885441583
  endloop
endfacet
facet normal -0.0 5.551115123125783e-16 -1.0
  outer loop
    vertex 103.38765167873281 -4.407652786793013 29.862862885441583
    vertex 128.38765167873282 -5.907652786793011 29.862862885441583
    vertex 103.38765167873281 -5.907652786793011 29.862862885441583
  endloop
endfacet
facet normal -1.0 0.0 0.0
  outer loop
    vertex 111.88765167873282 -9.40765278679302 43.86286288544158
    vertex 111.88765167873282 -5.907652786793016 35.86286288544158
    vertex 111.88765167873282 -9.407652786793015 35.86286288544158
  endloop
endfacet
facet normal -1.0 0.0 0.0
  outer loop
    vertex 111.88765167873282 -5.907652786793016 35.86286288544158
    vertex 111.88765167873282 -9.40765278679302 43.86286288544158
    vertex 111.88765167873282 -5.90765278679302 43.86286288544158
  endloop
endfacet
facet normal 0.0 -5.551115123125783e-16 1.0
  outer loop
    vertex 111.88765167873282 -9.40765278679302 43.86286288544158
    vertex 119.88765167873281 -5.90765278679302 43.86286288544158
    vertex 111.88765167873282 -5.90765278679302 43.86286288544158
  endloop
endfacet
facet normal 0.0 -5.551115123125783e-16 1.0
  outer loop
    vertex 119.88765167873281 -5.90765278679302 43.86286288544158
    vertex 111.88765167873282 -9.40765278679302 43.86286288544158
    vertex 119.88765167873281 -9.40765278679302 43.86286288544158
  endloop
endfacet
facet normal 1.0 0.0 0.0
  outer loop
    vertex 128.38765167873282 -4.407652786793026 53.86286288544158
    vertex 128.38765167873282 -5.907652786793011 29.862862885441583
    vertex 128.38765167873282 -4.407652786793013 29.862862885441583
  endloop
endfacet
facet normal 1.0 0.0 0.0
  outer loop
    vertex 128.38765167873282 -5.907652786793011 29.862862885441583
    vertex 128.38765167873282 -4.407652786793026 53.86286288544158
    vertex 128.38765167873282 -5.907652786793025 53.86286288544158
  endloop
endfacet
facet normal 0.0 -5.551115123125783e-16 1.0
  outer loop
    vertex 103.38765167873281 -5.907652786793025 53.86286288544158
    vertex 128.38765167873282 -4.407652786793026 53.86286288544158
    vertex 103.38765167873281 -4.407652786793026 53.86286288544158
  endloop
endfacet
facet normal 0.0 -5.551115123125783e-16 1.0
  outer loop
    vertex 128.38765167873282 -4.407652786793026 53.86286288544158
    vertex 103.38765167873281 -5.907652786793025 53.86286288544158
    vertex 128.38765167873282 -5.907652786793025 53.86286288544158
  endloop
endfacet
facet normal 1.0 0.0 0.0
  outer loop
    vertex 119.88765167873281 -5.90765278679302 43.86286288544158
    vertex 119.88765167873281 -9.407652786793015 35.86286288544158
    vertex 119.88765167873281 -5.907652786793016 35.86286288544158
  endloop
endfacet
facet normal 1.0 0.0 0.0
  outer loop
    vertex 119.88765167873281 -9.407652786793015 35.86286288544158
    vertex 119.88765167873281 -5.90765278679302 43.86286288544158
    vertex 119.88765167873281 -9.40765278679302 43.86286288544158
  endloop
endfacet
facet normal 0.0 -1.0 -5.551115123125783e-16
  outer loop
    vertex 111.88765167873282 -9.407652786793015 35.86286288544158
    vertex 112.08765167873281 -9.407652786793017 39.86286288544158
    vertex 111.88765167873282 -9.40765278679302 43.86286288544158
  endloop
endfacet
facet normal 0.0 -1.0 -5.551115123125783e-16
  outer loop
    vertex 112.08765167873281 -9.407652786793017 39.86286288544158
    vertex 111.88765167873282 -9.407652786793015 35.86286288544158
    vertex 112.21713353883435 -9.407652786793017 38.879350514052
  endloop
endfacet
facet normal 0.0 -1.0 -5.551115123125783e-16
  outer loop
    vertex 112.21713353883435 -9.407652786793017 38.879350514052
    vertex 111.88765167873282 -9.407652786793015 35.86286288544158
    vertex 112.59675514435195 -9.407652786793017 37.96286288544158
  endloop
endfacet
facet normal 0.0 -1.0 -5.551115123125783e-16
  outer loop
    vertex 112.59675514435195 -9.407652786793017 37.96286288544158
    vertex 111.88765167873282 -9.407652786793015 35.86286288544158
    vertex 113.20064591022393 -9.407652786793017 37.1758571169327
  endloop
endfacet
facet normal 0.0 -1.0 -5.551115123125783e-16
  outer loop
    vertex 113.20064591022393 -9.407652786793017 37.1758571169327
    vertex 111.88765167873282 -9.407652786793015 35.86286288544158
    vertex 113.98765167873282 -9.407652786793015 36.57196635106071
  endloop
endfacet
facet normal 0.0 -1.0 -5.551115123125783e-16
  outer loop
    vertex 113.98765167873282 -9.407652786793015 36.57196635106071
    vertex 111.88765167873282 -9.407652786793015 35.86286288544158
    vertex 114.90413930734323 -9.407652786793015 36.19234474554312
  endloop
endfacet
facet normal 0.0 -1.0 -5.551115123125783e-16
  outer loop
    vertex 114.90413930734323 -9.407652786793015 36.19234474554312
    vertex 111.88765167873282 -9.407652786793015 35.86286288544158
    vertex 115.88765167873281 -9.407652786793015 36.06286288544158
  endloop
endfacet
facet normal 0.0 -1.0 -5.551115123125783e-16
  outer loop
    vertex 115.88765167873281 -9.407652786793015 36.06286288544158
    vertex 111.88765167873282 -9.407652786793015 35.86286288544158
    vertex 119.88765167873281 -9.407652786793015 35.86286288544158
  endloop
endfacet
facet normal 0.0 -1.0 -5.551115123125783e-16
  outer loop
    vertex 115.88765167873281 -9.407652786793015 36.06286288544158
    vertex 119.88765167873281 -9.407652786793015 35.86286288544158
    vertex 116.87116405012239 -9.407652786793015 36.19234474554312
  endloop
endfacet
facet normal 0.0 -1.0 -5.551115123125783e-16
  outer loop
    vertex 116.87116405012239 -9.407652786793015 36.19234474554312
    vertex 119.88765167873281 -9.407652786793015 35.86286288544158
    vertex 117.78765167873281 -9.407652786793015 36.57196635106071
  endloop
endfacet
facet normal 0.0 -1.0 -5.551115123125783e-16
  outer loop
    vertex 117.78765167873281 -9.407652786793015 36.57196635106071
    vertex 119.88765167873281 -9.407652786793015 35.86286288544158
    vertex 118.57465744724169 -9.407652786793017 37.1758571169327
  endloop
endfacet
facet normal 0.0 -1.0 -5.551115123125783e-16
  outer loop
    vertex 118.57465744724169 -9.407652786793017 37.1758571169327
    vertex 119.88765167873281 -9.407652786793015 35.86286288544158
    vertex 119.17854821311367 -9.407652786793017 37.96286288544158
  endloop
endfacet
facet normal 0.0 -1.0 -5.551115123125783e-16
  outer loop
    vertex 119.17854821311367 -9.407652786793017 37.96286288544158
    vertex 119.88765167873281 -9.407652786793015 35.86286288544158
    vertex 119.55816981863128 -9.407652786793017 38.879350514052
  endloop
endfacet
facet normal 0.0 -1.0 -5.551115123125783e-16
  outer loop
    vertex 119.55816981863128 -9.407652786793017 38.879350514052
    vertex 119.88765167873281 -9.407652786793015 35.86286288544158
    vertex 119.6876516787328 -9.407652786793017 39.86286288544158
  endloop
endfacet
facet normal 0.0 -1.0 -5.551115123125783e-16
  outer loop
    vertex 111.88765167873282 -9.40765278679302 43.86286288544158
    vertex 115.88765167873281 -9.40765278679302 43.66286288544158
    vertex 119.88765167873281 -9.40765278679302 43.86286288544158
  endloop
endfacet
facet normal 0.0 -1.0 -5.551115123125783e-16
  outer loop
    vertex 115.88765167873281 -9.40765278679302 43.66286288544158
    vertex 111.88765167873282 -9.40765278679302 43.86286288544158
    vertex 114.90413930734323 -9.40765278679302 43.53338102534004
  endloop
endfacet
facet normal 0.0 -1.0 -5.551115123125783e-16
  outer loop
    vertex 114.90413930734323 -9.40765278679302 43.53338102534004
    vertex 111.88765167873282 -9.40765278679302 43.86286288544158
    vertex 113.98765167873282 -9.40765278679302 43.15375941982244
  endloop
endfacet
facet normal 0.0 -1.0 -5.551115123125783e-16
  outer loop
    vertex 113.98765167873282 -9.40765278679302 43.15375941982244
    vertex 111.88765167873282 -9.40765278679302 43.86286288544158
    vertex 113.20064591022393 -9.40765278679302 42.549868653950455
  endloop
endfacet
facet normal 0.0 -1.0 -5.551115123125783e-16
  outer loop
    vertex 113.20064591022393 -9.40765278679302 42.549868653950455
    vertex 111.88765167873282 -9.40765278679302 43.86286288544158
    vertex 112.59675514435195 -9.407652786793019 41.76286288544158
  endloop
endfacet
facet normal 0.0 -1.0 -5.551115123125783e-16
  outer loop
    vertex 112.59675514435195 -9.407652786793019 41.76286288544158
    vertex 111.88765167873282 -9.40765278679302 43.86286288544158
    vertex 112.21713353883435 -9.407652786793019 40.84637525683116
  endloop
endfacet
facet normal 0.0 -1.0 -5.551115123125783e-16
  outer loop
    vertex 112.21713353883435 -9.407652786793019 40.84637525683116
    vertex 111.88765167873282 -9.40765278679302 43.86286288544158
    vertex 112.08765167873281 -9.407652786793017 39.86286288544158
  endloop
endfacet
facet normal 0.0 -1.0 -5.551115123125783e-16
  outer loop
    vertex 119.88765167873281 -9.40765278679302 43.86286288544158
    vertex 115.88765167873281 -9.40765278679302 43.66286288544158
    vertex 116.87116405012239 -9.40765278679302 43.53338102534004
  endloop
endfacet
facet normal 0.0 -1.0 -5.551115123125783e-16
  outer loop
    vertex 119.88765167873281 -9.40765278679302 43.86286288544158
    vertex 116.87116405012239 -9.40765278679302 43.53338102534004
    vertex 117.78765167873281 -9.40765278679302 43.15375941982245
  endloop
endfacet
facet normal 0.0 -1.0 -5.551115123125783e-16
  outer loop
    vertex 119.88765167873281 -9.40765278679302 43.86286288544158
    vertex 117.78765167873281 -9.40765278679302 43.15375941982245
    vertex 118.57465744724169 -9.40765278679302 42.549868653950455
  endloop
endfacet
facet normal 0.0 -1.0 -5.551115123125783e-16
  outer loop
    vertex 119.88765167873281 -9.40765278679302 43.86286288544158
    vertex 118.57465744724169 -9.40765278679302 42.549868653950455
    vertex 119.17854821311367 -9.407652786793019 41.762862885441585
  endloop
endfacet
facet normal 0.0 -1.0 -5.551115123125783e-16
  outer loop
    vertex 119.88765167873281 -9.40765278679302 43.86286288544158
    vertex 119.17854821311367 -9.407652786793019 41.762862885441585
    vertex 119.55816981863126 -9.407652786793019 40.84637525683116
  endloop
endfacet
facet normal 0.0 -1.0 -5.551115123125783e-16
  outer loop
    vertex 119.88765167873281 -9.40765278679302 43.86286288544158
    vertex 119.55816981863126 -9.407652786793019 40.84637525683116
    vertex 119.6876516787328 -9.407652786793017 39.86286288544158
  endloop
endfacet
facet normal 0.0 -1.0 -5.551115123125783e-16
  outer loop
    vertex 119.88765167873281 -9.40765278679302 43.86286288544158
    vertex 119.6876516787328 -9.407652786793017 39.86286288544158
    vertex 119.88765167873281 -9.407652786793015 35.86286288544158
  endloop
endfacet
facet normal -1.0 -0.0 0.0
  outer loop
    vertex 103.38765167873281 -5.907652786793025 53.86286288544158
    vertex 103.38765167873281 -4.407652786793013 29.862862885441583
    vertex 103.38765167873281 -5.907652786793011 29.862862885441583
  endloop
endfacet
facet normal -1.0 -0.0 0.0
  outer loop
    vertex 103.38765167873281 -4.407652786793013 29.862862885441583
    vertex 103.38765167873281 -5.907652786793025 53.86286288544158
    vertex 103.38765167873281 -4.407652786793026 53.86286288544158
  endloop
endfacet
facet normal 0.25881904510252113 5.361965462131015e-16 -0.9659258262890683
  outer loop
    vertex 116.61011166568228 -10.007652786793017 37.166605507710585
    vertex 115.88765167873281 -9.707652786793016 37.07149184602173
    vertex 116.61011166568228 -9.707652786793016 37.166605507710585
  endloop
endfacet
facet normal 0.0 5.551115123125783e-16 -1.0
  outer loop
    vertex 115.88765167873281 -9.707652786793016 37.07149184602173
    vertex 116.61011166568228 -10.007652786793017 37.166605507710585
    vertex 115.88765167873281 -10.007652786793017 37.07149184602173
  endloop
endfacet
facet normal 0.5000000000000009 4.807406715958907e-16 -0.8660254037844383
  outer loop
    vertex 117.28333719844274 -10.007652786793017 37.44546465391581
    vertex 116.61011166568228 -9.707652786793016 37.166605507710585
    vertex 117.28333719844274 -9.707652786793016 37.44546465391581
  endloop
endfacet
facet normal 0.25881904510252113 5.361965462131015e-16 -0.9659258262890683
  outer loop
    vertex 116.61011166568228 -9.707652786793016 37.166605507710585
    vertex 117.28333719844274 -10.007652786793017 37.44546465391581
    vertex 116.61011166568228 -10.007652786793017 37.166605507710585
  endloop
endfacet
facet normal 0.7071067811865475 3.925231146709438e-16 -0.7071067811865476
  outer loop
    vertex 117.86144906951432 -10.007652786793017 37.889065494660066
    vertex 117.28333719844274 -9.707652786793016 37.44546465391581
    vertex 117.86144906951432 -9.707652786793016 37.889065494660066
  endloop
endfacet
facet normal 0.5000000000000009 4.807406715958907e-16 -0.8660254037844383
  outer loop
    vertex 117.28333719844274 -9.707652786793016 37.44546465391581
    vertex 117.86144906951432 -10.007652786793017 37.889065494660066
    vertex 117.28333719844274 -10.007652786793017 37.44546465391581
  endloop
endfacet
facet normal 0.8660254037844384 2.775557561562894e-16 -0.5000000000000004
  outer loop
    vertex 118.30504991025857 -9.707652786793016 38.46717736573165
    vertex 117.86144906951432 -10.007652786793017 37.889065494660066
    vertex 117.86144906951432 -9.707652786793016 37.889065494660066
  endloop
endfacet
facet normal 0.7071067811865475 3.925231146709438e-16 -0.7071067811865476
  outer loop
    vertex 117.86144906951432 -10.007652786793017 37.889065494660066
    vertex 118.30504991025857 -9.707652786793016 38.46717736573165
    vertex 118.30504991025857 -10.007652786793017 38.46717736573165
  endloop
endfacet
facet normal 0.9659258262890684 1.4367343154215772e-16 -0.2588190451025208
  outer loop
    vertex 118.58390905646381 -9.707652786793016 39.14040289849211
    vertex 118.30504991025857 -10.007652786793017 38.46717736573165
    vertex 118.30504991025857 -9.707652786793016 38.46717736573165
  endloop
endfacet
facet normal 0.8660254037844384 2.775557561562894e-16 -0.5000000000000004
  outer loop
    vertex 118.30504991025857 -10.007652786793017 38.46717736573165
    vertex 118.58390905646381 -9.707652786793016 39.14040289849211
    vertex 118.58390905646381 -10.007652786793017 39.14040289849211
  endloop
endfacet
facet normal 1.0 -5.045592884367258e-31 9.089332093559844e-16
  outer loop
    vertex 118.67902271815265 -9.707652786793016 39.86286288544157
    vertex 118.58390905646381 -10.007652786793017 39.14040289849211
    vertex 118.58390905646381 -9.707652786793016 39.14040289849211
  endloop
endfacet
facet normal 0.9659258262890684 1.4367343154215772e-16 -0.2588190451025208
  outer loop
    vertex 118.58390905646381 -10.007652786793017 39.14040289849211
    vertex 118.67902271815265 -9.707652786793016 39.86286288544157
    vertex 118.67902271815265 -10.007652786793017 39.86286288544157
  endloop
endfacet
facet normal 0.9659258262890682 -1.4367343154215784e-16 0.258819045102521
  outer loop
    vertex 118.58390905646381 -9.707652786793016 40.58532287239106
    vertex 118.67902271815265 -10.007652786793017 39.86286288544157
    vertex 118.67902271815265 -9.707652786793016 39.86286288544157
  endloop
endfacet
facet normal 1.0 -5.045592884367258e-31 9.089332093559844e-16
  outer loop
    vertex 118.67902271815265 -10.007652786793017 39.86286288544157
    vertex 118.58390905646381 -9.707652786793016 40.58532287239106
    vertex 118.58390905646381 -10.007652786793017 40.58532287239106
  endloop
endfacet
facet normal 0.8660254037844385 -2.7755575615628943e-16 0.5000000000000006
  outer loop
    vertex 118.30504991025857 -9.707652786793018 41.25854840515151
    vertex 118.58390905646381 -10.007652786793017 40.58532287239106
    vertex 118.58390905646381 -9.707652786793016 40.58532287239106
  endloop
endfacet
facet normal 0.9659258262890682 -1.4367343154215784e-16 0.258819045102521
  outer loop
    vertex 118.58390905646381 -10.007652786793017 40.58532287239106
    vertex 118.30504991025857 -9.707652786793018 41.25854840515151
    vertex 118.30504991025857 -10.007652786793017 41.25854840515151
  endloop
endfacet
facet normal 0.7071067811865466 -3.9252311467094427e-16 0.7071067811865485
  outer loop
    vertex 117.86144906951432 -9.707652786793018 41.83666027622309
    vertex 118.30504991025857 -10.007652786793017 41.25854840515151
    vertex 118.30504991025857 -9.707652786793018 41.25854840515151
  endloop
endfacet
facet normal 0.8660254037844385 -2.7755575615628943e-16 0.5000000000000006
  outer loop
    vertex 118.30504991025857 -10.007652786793017 41.25854840515151
    vertex 117.86144906951432 -9.707652786793018 41.83666027622309
    vertex 117.86144906951432 -10.007652786793017 41.83666027622309
  endloop
endfacet
facet normal 0.49999999999999944 -4.807406715958912e-16 0.866025403784439
  outer loop
    vertex 117.28333719844274 -10.007652786793019 42.280261116967345
    vertex 117.86144906951432 -9.707652786793018 41.83666027622309
    vertex 117.28333719844274 -9.70765278679302 42.280261116967345
  endloop
endfacet
facet normal 0.7071067811865466 -3.9252311467094427e-16 0.7071067811865485
  outer loop
    vertex 117.86144906951432 -9.707652786793018 41.83666027622309
    vertex 117.28333719844274 -10.007652786793019 42.280261116967345
    vertex 117.86144906951432 -10.007652786793017 41.83666027622309
  endloop
endfacet
facet normal 0.2588190451025196 -5.361965462131017e-16 0.9659258262890688
  outer loop
    vertex 116.61011166568228 -10.007652786793019 42.55912026317257
    vertex 117.28333719844274 -9.70765278679302 42.280261116967345
    vertex 116.61011166568228 -9.70765278679302 42.55912026317257
  endloop
endfacet
facet normal 0.49999999999999944 -4.807406715958912e-16 0.866025403784439
  outer loop
    vertex 117.28333719844274 -9.70765278679302 42.280261116967345
    vertex 116.61011166568228 -10.007652786793019 42.55912026317257
    vertex 117.28333719844274 -10.007652786793019 42.280261116967345
  endloop
endfacet
facet normal -5.257554838431673e-16 -5.551115123125783e-16 1.0
  outer loop
    vertex 115.88765167873281 -10.007652786793019 42.65423392486142
    vertex 116.61011166568228 -9.70765278679302 42.55912026317257
    vertex 115.88765167873281 -9.70765278679302 42.65423392486142
  endloop
endfacet
facet normal 0.2588190451025196 -5.361965462131017e-16 0.9659258262890688
  outer loop
    vertex 116.61011166568228 -9.70765278679302 42.55912026317257
    vertex 115.88765167873281 -10.007652786793019 42.65423392486142
    vertex 116.61011166568228 -10.007652786793019 42.55912026317257
  endloop
endfacet
facet normal -0.2588190451025203 -5.361965462131016e-16 0.9659258262890684
  outer loop
    vertex 115.16519169178332 -10.007652786793019 42.55912026317257
    vertex 115.88765167873281 -9.70765278679302 42.65423392486142
    vertex 115.16519169178332 -9.70765278679302 42.55912026317257
  endloop
endfacet
facet normal -5.257554838431673e-16 -5.551115123125783e-16 1.0
  outer loop
    vertex 115.88765167873281 -9.70765278679302 42.65423392486142
    vertex 115.16519169178332 -10.007652786793019 42.55912026317257
    vertex 115.88765167873281 -10.007652786793019 42.65423392486142
  endloop
endfacet
facet normal -0.5000000000000011 -4.807406715958906e-16 0.866025403784438
  outer loop
    vertex 114.4919661590229 -10.007652786793019 42.28026111696734
    vertex 115.16519169178332 -9.70765278679302 42.55912026317257
    vertex 114.4919661590229 -9.70765278679302 42.28026111696734
  endloop
endfacet
facet normal -0.2588190451025203 -5.361965462131016e-16 0.9659258262890684
  outer loop
    vertex 115.16519169178332 -9.70765278679302 42.55912026317257
    vertex 114.4919661590229 -10.007652786793019 42.28026111696734
    vertex 115.16519169178332 -10.007652786793019 42.55912026317257
  endloop
endfacet
facet normal -0.7071067811865483 -3.925231146709434e-16 0.7071067811865468
  outer loop
    vertex 113.91385428795131 -10.007652786793017 41.83666027622309
    vertex 114.4919661590229 -9.70765278679302 42.28026111696734
    vertex 113.91385428795131 -9.707652786793018 41.83666027622309
  endloop
endfacet
facet normal -0.5000000000000011 -4.807406715958906e-16 0.866025403784438
  outer loop
    vertex 114.4919661590229 -9.70765278679302 42.28026111696734
    vertex 113.91385428795131 -10.007652786793017 41.83666027622309
    vertex 114.4919661590229 -10.007652786793019 42.28026111696734
  endloop
endfacet
facet normal -0.7071067811865483 -3.925231146709434e-16 0.7071067811865468
  outer loop
    vertex 113.91385428795131 -10.007652786793017 41.83666027622309
    vertex 113.47025344720706 -9.707652786793018 41.2585484051515
    vertex 113.47025344720706 -10.007652786793017 41.2585484051515
  endloop
endfacet
facet normal -0.8660254037844386 -2.775557561562892e-16 0.5000000000000001
  outer loop
    vertex 113.47025344720706 -9.707652786793018 41.2585484051515
    vertex 113.91385428795131 -10.007652786793017 41.83666027622309
    vertex 113.91385428795131 -9.707652786793018 41.83666027622309
  endloop
endfacet
facet normal -0.8660254037844386 -2.775557561562892e-16 0.5000000000000001
  outer loop
    vertex 113.47025344720706 -10.007652786793017 41.2585484051515
    vertex 113.19139430100182 -9.707652786793016 40.58532287239105
    vertex 113.19139430100182 -10.007652786793017 40.58532287239105
  endloop
endfacet
facet normal -0.9659258262890685 -1.4367343154215732e-16 0.2588190451025201
  outer loop
    vertex 113.19139430100182 -9.707652786793016 40.58532287239105
    vertex 113.47025344720706 -10.007652786793017 41.2585484051515
    vertex 113.47025344720706 -9.707652786793018 41.2585484051515
  endloop
endfacet
facet normal -0.9659258262890685 -1.4367343154215732e-16 0.2588190451025201
  outer loop
    vertex 113.19139430100182 -10.007652786793017 40.58532287239105
    vertex 113.09628063931297 -9.707652786793016 39.86286288544157
    vertex 113.09628063931297 -10.007652786793017 39.86286288544157
  endloop
endfacet
facet normal -1.0 2.770129426711436e-31 -4.990221541562268e-16
  outer loop
    vertex 113.09628063931297 -9.707652786793016 39.86286288544157
    vertex 113.19139430100182 -10.007652786793017 40.58532287239105
    vertex 113.19139430100182 -9.707652786793016 40.58532287239105
  endloop
endfacet
facet normal -1.0 2.770129426711436e-31 -4.990221541562268e-16
  outer loop
    vertex 113.09628063931297 -10.007652786793017 39.86286288544157
    vertex 113.19139430100182 -9.707652786793016 39.14040289849211
    vertex 113.19139430100182 -10.007652786793017 39.14040289849211
  endloop
endfacet
facet normal -0.9659258262890684 1.4367343154215767e-16 -0.2588190451025207
  outer loop
    vertex 113.19139430100182 -9.707652786793016 39.14040289849211
    vertex 113.09628063931297 -10.007652786793017 39.86286288544157
    vertex 113.09628063931297 -9.707652786793016 39.86286288544157
  endloop
endfacet
facet normal -0.9659258262890684 1.4367343154215767e-16 -0.2588190451025207
  outer loop
    vertex 113.19139430100182 -10.007652786793017 39.14040289849211
    vertex 113.47025344720706 -9.707652786793016 38.46717736573165
    vertex 113.47025344720706 -10.007652786793017 38.46717736573165
  endloop
endfacet
facet normal -0.8660254037844384 2.7755575615628943e-16 -0.5000000000000006
  outer loop
    vertex 113.47025344720706 -9.707652786793016 38.46717736573165
    vertex 113.19139430100182 -10.007652786793017 39.14040289849211
    vertex 113.19139430100182 -9.707652786793016 39.14040289849211
  endloop
endfacet
facet normal -0.8660254037844384 2.7755575615628943e-16 -0.5000000000000006
  outer loop
    vertex 113.47025344720706 -10.007652786793017 38.46717736573165
    vertex 113.91385428795131 -9.707652786793016 37.88906549466006
    vertex 113.91385428795131 -10.007652786793017 37.88906549466006
  endloop
endfacet
facet normal -0.707106781186547 3.9252311467094408e-16 -0.7071067811865481
  outer loop
    vertex 113.91385428795131 -9.707652786793016 37.88906549466006
    vertex 113.47025344720706 -10.007652786793017 38.46717736573165
    vertex 113.47025344720706 -9.707652786793016 38.46717736573165
  endloop
endfacet
facet normal -0.5000000000000001 4.80740671595891e-16 -0.8660254037844387
  outer loop
    vertex 114.4919661590229 -10.007652786793017 37.44546465391581
    vertex 113.91385428795131 -9.707652786793016 37.88906549466006
    vertex 114.4919661590229 -9.707652786793016 37.44546465391581
  endloop
endfacet
facet normal -0.707106781186547 3.9252311467094408e-16 -0.7071067811865481
  outer loop
    vertex 113.91385428795131 -9.707652786793016 37.88906549466006
    vertex 114.4919661590229 -10.007652786793017 37.44546465391581
    vertex 113.91385428795131 -10.007652786793017 37.88906549466006
  endloop
endfacet
facet normal -0.2588190451025206 5.361965462131016e-16 -0.9659258262890684
  outer loop
    vertex 115.16519169178335 -10.007652786793017 37.166605507710585
    vertex 114.4919661590229 -9.707652786793016 37.44546465391581
    vertex 115.16519169178335 -9.707652786793016 37.166605507710585
  endloop
endfacet
facet normal -0.5000000000000001 4.80740671595891e-16 -0.8660254037844387
  outer loop
    vertex 114.4919661590229 -9.707652786793016 37.44546465391581
    vertex 115.16519169178335 -10.007652786793017 37.166605507710585
    vertex 114.4919661590229 -10.007652786793017 37.44546465391581
  endloop
endfacet
facet normal 0.0 5.551115123125783e-16 -1.0
  outer loop
    vertex 115.88765167873281 -10.007652786793017 37.07149184602173
    vertex 115.16519169178335 -9.707652786793016 37.166605507710585
    vertex 115.88765167873281 -9.707652786793016 37.07149184602173
  endloop
endfacet
facet normal -0.2588190451025206 5.361965462131016e-16 -0.9659258262890684
  outer loop
    vertex 115.16519169178335 -9.707652786793016 37.166605507710585
    vertex 115.88765167873281 -10.007652786793017 37.07149184602173
    vertex 115.16519169178335 -10.007652786793017 37.166605507710585
  endloop
endfacet
facet normal 0.707106781186548 3.9252311467094353e-16 -0.7071067811865471
  outer loop
    vertex 118.57465744724169 -9.707652786793016 37.1758571169327
    vertex 117.78765167873281 -9.407652786793015 36.57196635106071
    vertex 118.57465744724169 -9.407652786793017 37.1758571169327
  endloop
endfacet
facet normal 0.5000000000000001 4.807406715958909e-16 -0.8660254037844386
  outer loop
    vertex 117.78765167873281 -9.407652786793015 36.57196635106071
    vertex 118.57465744724169 -9.707652786793016 37.1758571169327
    vertex 117.78765167873281 -9.707652786793016 36.57196635106071
  endloop
endfacet
facet normal 0.5000000000000001 4.807406715958909e-16 -0.8660254037844386
  outer loop
    vertex 117.78765167873281 -9.707652786793016 36.57196635106071
    vertex 116.87116405012239 -9.407652786793015 36.19234474554312
    vertex 117.78765167873281 -9.407652786793015 36.57196635106071
  endloop
endfacet
facet normal 0.2588190451025208 5.361965462131015e-16 -0.9659258262890684
  outer loop
    vertex 116.87116405012239 -9.407652786793015 36.19234474554312
    vertex 117.78765167873281 -9.707652786793016 36.57196635106071
    vertex 116.87116405012239 -9.707652786793016 36.19234474554312
  endloop
endfacet
facet normal -0.2588190451025207 -5.361965462131015e-16 0.9659258262890684
  outer loop
    vertex 114.90413930734323 -9.70765278679302 43.53338102534004
    vertex 115.88765167873281 -9.40765278679302 43.66286288544158
    vertex 114.90413930734323 -9.40765278679302 43.53338102534004
  endloop
endfacet
facet normal 2.76244406765054e-16 -5.551115123125783e-16 1.0
  outer loop
    vertex 115.88765167873281 -9.40765278679302 43.66286288544158
    vertex 114.90413930734323 -9.70765278679302 43.53338102534004
    vertex 115.88765167873281 -9.70765278679302 43.66286288544158
  endloop
endfacet
facet normal 0.2588190451025208 5.361965462131015e-16 -0.9659258262890684
  outer loop
    vertex 116.87116405012239 -9.707652786793016 36.19234474554312
    vertex 115.88765167873281 -9.407652786793015 36.06286288544158
    vertex 116.87116405012239 -9.407652786793015 36.19234474554312
  endloop
endfacet
facet normal 2.6733329686940717e-16 5.551115123125783e-16 -1.0
  outer loop
    vertex 115.88765167873281 -9.407652786793015 36.06286288544158
    vertex 116.87116405012239 -9.707652786793016 36.19234474554312
    vertex 115.88765167873281 -9.707652786793016 36.06286288544158
  endloop
endfacet
facet normal 0.8660254037844387 2.775557561562891e-16 -0.49999999999999994
  outer loop
    vertex 119.17854821311367 -9.407652786793017 37.96286288544158
    vertex 118.57465744724169 -9.707652786793016 37.1758571169327
    vertex 118.57465744724169 -9.407652786793017 37.1758571169327
  endloop
endfacet
facet normal 0.707106781186548 3.9252311467094353e-16 -0.7071067811865471
  outer loop
    vertex 118.57465744724169 -9.707652786793016 37.1758571169327
    vertex 119.17854821311367 -9.407652786793017 37.96286288544158
    vertex 119.17854821311367 -9.707652786793016 37.96286288544158
  endloop
endfacet
facet normal 0.0 -1.0 -5.551115123125783e-16
  outer loop
    vertex 112.21713353883435 -9.707652786793016 38.879350514052
    vertex 112.21713353883435 -9.707652786793018 40.84637525683116
    vertex 112.08765167873281 -9.707652786793016 39.86286288544158
  endloop
endfacet
facet normal 0.0 -1.0 -5.551115123125783e-16
  outer loop
    vertex 112.21713353883435 -9.707652786793018 40.84637525683116
    vertex 112.21713353883435 -9.707652786793016 38.879350514052
    vertex 112.59675514435195 -9.707652786793016 37.96286288544158
  endloop
endfacet
facet normal 0.0 -1.0 -5.551115123125783e-16
  outer loop
    vertex 112.21713353883435 -9.707652786793018 40.84637525683116
    vertex 112.59675514435195 -9.707652786793016 37.96286288544158
    vertex 112.59675514435195 -9.707652786793018 41.76286288544158
  endloop
endfacet
facet normal 0.0 -1.0 -5.551115123125783e-16
  outer loop
    vertex 112.59675514435195 -9.707652786793018 41.76286288544158
    vertex 112.59675514435195 -9.707652786793016 37.96286288544158
    vertex 113.20064591022393 -9.707652786793016 37.1758571169327
  endloop
endfacet
facet normal 0.0 -1.0 -5.551115123125783e-16
  outer loop
    vertex 112.59675514435195 -9.707652786793018 41.76286288544158
    vertex 113.20064591022393 -9.707652786793016 37.1758571169327
    vertex 113.09628063931297 -9.707652786793016 39.86286288544157
  endloop
endfacet
facet normal 0.0 -1.0 -5.551115123125783e-16
  outer loop
    vertex 113.09628063931297 -9.707652786793016 39.86286288544157
    vertex 113.20064591022393 -9.707652786793016 37.1758571169327
    vertex 113.19139430100182 -9.707652786793016 39.14040289849211
  endloop
endfacet
facet normal 0.0 -1.0 -5.551115123125783e-16
  outer loop
    vertex 113.19139430100182 -9.707652786793016 39.14040289849211
    vertex 113.20064591022393 -9.707652786793016 37.1758571169327
    vertex 113.47025344720706 -9.707652786793016 38.46717736573165
  endloop
endfacet
facet normal 0.0 -1.0 -5.551115123125783e-16
  outer loop
    vertex 113.47025344720706 -9.707652786793016 38.46717736573165
    vertex 113.20064591022393 -9.707652786793016 37.1758571169327
    vertex 113.98765167873282 -9.707652786793016 36.57196635106071
  endloop
endfacet
facet normal 0.0 -1.0 -5.551115123125783e-16
  outer loop
    vertex 113.47025344720706 -9.707652786793016 38.46717736573165
    vertex 113.98765167873282 -9.707652786793016 36.57196635106071
    vertex 113.91385428795131 -9.707652786793016 37.88906549466006
  endloop
endfacet
facet normal 0.0 -1.0 -5.551115123125783e-16
  outer loop
    vertex 113.91385428795131 -9.707652786793016 37.88906549466006
    vertex 113.98765167873282 -9.707652786793016 36.57196635106071
    vertex 114.4919661590229 -9.707652786793016 37.44546465391581
  endloop
endfacet
facet normal 0.0 -1.0 -5.551115123125783e-16
  outer loop
    vertex 114.4919661590229 -9.707652786793016 37.44546465391581
    vertex 113.98765167873282 -9.707652786793016 36.57196635106071
    vertex 114.90413930734323 -9.707652786793016 36.19234474554312
  endloop
endfacet
facet normal 0.0 -1.0 -5.551115123125783e-16
  outer loop
    vertex 114.4919661590229 -9.707652786793016 37.44546465391581
    vertex 114.90413930734323 -9.707652786793016 36.19234474554312
    vertex 115.16519169178335 -9.707652786793016 37.166605507710585
  endloop
endfacet
facet normal 0.0 -1.0 -5.551115123125783e-16
  outer loop
    vertex 115.16519169178335 -9.707652786793016 37.166605507710585
    vertex 114.90413930734323 -9.707652786793016 36.19234474554312
    vertex 115.88765167873281 -9.707652786793016 36.06286288544158
  endloop
endfacet
facet normal 0.0 -1.0 -5.551115123125783e-16
  outer loop
    vertex 115.16519169178335 -9.707652786793016 37.166605507710585
    vertex 115.88765167873281 -9.707652786793016 36.06286288544158
    vertex 115.88765167873281 -9.707652786793016 37.07149184602173
  endloop
endfacet
facet normal 0.0 -1.0 -5.551115123125783e-16
  outer loop
    vertex 115.88765167873281 -9.707652786793016 37.07149184602173
    vertex 115.88765167873281 -9.707652786793016 36.06286288544158
    vertex 116.87116405012239 -9.707652786793016 36.19234474554312
  endloop
endfacet
facet normal 0.0 -1.0 -5.551115123125783e-16
  outer loop
    vertex 115.88765167873281 -9.707652786793016 37.07149184602173
    vertex 116.87116405012239 -9.707652786793016 36.19234474554312
    vertex 116.61011166568228 -9.707652786793016 37.166605507710585
  endloop
endfacet
facet normal 0.0 -1.0 -5.551115123125783e-16
  outer loop
    vertex 116.61011166568228 -9.707652786793016 37.166605507710585
    vertex 116.87116405012239 -9.707652786793016 36.19234474554312
    vertex 117.28333719844274 -9.707652786793016 37.44546465391581
  endloop
endfacet
facet normal 0.0 -1.0 -5.551115123125783e-16
  outer loop
    vertex 117.28333719844274 -9.707652786793016 37.44546465391581
    vertex 116.87116405012239 -9.707652786793016 36.19234474554312
    vertex 117.78765167873281 -9.707652786793016 36.57196635106071
  endloop
endfacet
facet normal 0.0 -1.0 -5.551115123125783e-16
  outer loop
    vertex 117.28333719844274 -9.707652786793016 37.44546465391581
    vertex 117.78765167873281 -9.707652786793016 36.57196635106071
    vertex 117.86144906951432 -9.707652786793016 37.889065494660066
  endloop
endfacet
facet normal 0.0 -1.0 -5.551115123125783e-16
  outer loop
    vertex 117.86144906951432 -9.707652786793016 37.889065494660066
    vertex 117.78765167873281 -9.707652786793016 36.57196635106071
    vertex 118.57465744724169 -9.707652786793016 37.1758571169327
  endloop
endfacet
facet normal 0.0 -1.0 -5.551115123125783e-16
  outer loop
    vertex 117.86144906951432 -9.707652786793016 37.889065494660066
    vertex 118.57465744724169 -9.707652786793016 37.1758571169327
    vertex 118.30504991025857 -9.707652786793016 38.46717736573165
  endloop
endfacet
facet normal 0.0 -1.0 -5.551115123125783e-16
  outer loop
    vertex 118.30504991025857 -9.707652786793016 38.46717736573165
    vertex 118.57465744724169 -9.707652786793016 37.1758571169327
    vertex 118.58390905646381 -9.707652786793016 39.14040289849211
  endloop
endfacet
facet normal 0.0 -1.0 -5.551115123125783e-16
  outer loop
    vertex 118.58390905646381 -9.707652786793016 39.14040289849211
    vertex 118.57465744724169 -9.707652786793016 37.1758571169327
    vertex 119.17854821311367 -9.707652786793016 37.96286288544158
  endloop
endfacet
facet normal 0.0 -1.0 -5.551115123125783e-16
  outer loop
    vertex 118.58390905646381 -9.707652786793016 39.14040289849211
    vertex 119.17854821311367 -9.707652786793016 37.96286288544158
    vertex 118.67902271815265 -9.707652786793016 39.86286288544157
  endloop
endfacet
facet normal 0.0 -1.0 -5.551115123125783e-16
  outer loop
    vertex 113.09628063931297 -9.707652786793016 39.86286288544157
    vertex 113.20064591022393 -9.70765278679302 42.549868653950455
    vertex 112.59675514435195 -9.707652786793018 41.76286288544158
  endloop
endfacet
facet normal 0.0 -1.0 -5.551115123125783e-16
  outer loop
    vertex 113.20064591022393 -9.70765278679302 42.549868653950455
    vertex 113.09628063931297 -9.707652786793016 39.86286288544157
    vertex 113.19139430100182 -9.707652786793016 40.58532287239105
  endloop
endfacet
facet normal 0.0 -1.0 -5.551115123125783e-16
  outer loop
    vertex 113.20064591022393 -9.70765278679302 42.549868653950455
    vertex 113.19139430100182 -9.707652786793016 40.58532287239105
    vertex 113.47025344720706 -9.707652786793018 41.2585484051515
  endloop
endfacet
facet normal 0.0 -1.0 -5.551115123125783e-16
  outer loop
    vertex 113.20064591022393 -9.70765278679302 42.549868653950455
    vertex 113.47025344720706 -9.707652786793018 41.2585484051515
    vertex 113.98765167873282 -9.70765278679302 43.15375941982244
  endloop
endfacet
facet normal 0.0 -1.0 -5.551115123125783e-16
  outer loop
    vertex 113.98765167873282 -9.70765278679302 43.15375941982244
    vertex 113.47025344720706 -9.707652786793018 41.2585484051515
    vertex 113.91385428795131 -9.707652786793018 41.83666027622309
  endloop
endfacet
facet normal 0.0 -1.0 -5.551115123125783e-16
  outer loop
    vertex 113.98765167873282 -9.70765278679302 43.15375941982244
    vertex 113.91385428795131 -9.707652786793018 41.83666027622309
    vertex 114.4919661590229 -9.70765278679302 42.28026111696734
  endloop
endfacet
facet normal 0.0 -1.0 -5.551115123125783e-16
  outer loop
    vertex 113.98765167873282 -9.70765278679302 43.15375941982244
    vertex 114.4919661590229 -9.70765278679302 42.28026111696734
    vertex 114.90413930734323 -9.70765278679302 43.53338102534004
  endloop
endfacet
facet normal 0.0 -1.0 -5.551115123125783e-16
  outer loop
    vertex 114.90413930734323 -9.70765278679302 43.53338102534004
    vertex 114.4919661590229 -9.70765278679302 42.28026111696734
    vertex 115.16519169178332 -9.70765278679302 42.55912026317257
  endloop
endfacet
facet normal 0.0 -1.0 -5.551115123125783e-16
  outer loop
    vertex 114.90413930734323 -9.70765278679302 43.53338102534004
    vertex 115.16519169178332 -9.70765278679302 42.55912026317257
    vertex 115.88765167873281 -9.70765278679302 43.66286288544158
  endloop
endfacet
facet normal 0.0 -1.0 -5.551115123125783e-16
  outer loop
    vertex 115.88765167873281 -9.70765278679302 43.66286288544158
    vertex 115.16519169178332 -9.70765278679302 42.55912026317257
    vertex 115.88765167873281 -9.70765278679302 42.65423392486142
  endloop
endfacet
facet normal 0.0 -1.0 -5.551115123125783e-16
  outer loop
    vertex 115.88765167873281 -9.70765278679302 43.66286288544158
    vertex 115.88765167873281 -9.70765278679302 42.65423392486142
    vertex 116.61011166568228 -9.70765278679302 42.55912026317257
  endloop
endfacet
facet normal 0.0 -1.0 -5.551115123125783e-16
  outer loop
    vertex 115.88765167873281 -9.70765278679302 43.66286288544158
    vertex 116.61011166568228 -9.70765278679302 42.55912026317257
    vertex 116.87116405012239 -9.70765278679302 43.53338102534004
  endloop
endfacet
facet normal 0.0 -1.0 -5.551115123125783e-16
  outer loop
    vertex 116.87116405012239 -9.70765278679302 43.53338102534004
    vertex 116.61011166568228 -9.70765278679302 42.55912026317257
    vertex 117.28333719844274 -9.70765278679302 42.280261116967345
  endloop
endfacet
facet normal 0.0 -1.0 -5.551115123125783e-16
  outer loop
    vertex 116.87116405012239 -9.70765278679302 43.53338102534004
    vertex 117.28333719844274 -9.70765278679302 42.280261116967345
    vertex 117.78765167873281 -9.70765278679302 43.15375941982245
  endloop
endfacet
facet normal 0.0 -1.0 -5.551115123125783e-16
  outer loop
    vertex 117.78765167873281 -9.70765278679302 43.15375941982245
    vertex 117.28333719844274 -9.70765278679302 42.280261116967345
    vertex 117.86144906951432 -9.707652786793018 41.83666027622309
  endloop
endfacet
facet normal 0.0 -1.0 -5.551115123125783e-16
  outer loop
    vertex 117.78765167873281 -9.70765278679302 43.15375941982245
    vertex 117.86144906951432 -9.707652786793018 41.83666027622309
    vertex 118.57465744724169 -9.70765278679302 42.549868653950455
  endloop
endfacet
facet normal 0.0 -1.0 -5.551115123125783e-16
  outer loop
    vertex 118.57465744724169 -9.70765278679302 42.549868653950455
    vertex 117.86144906951432 -9.707652786793018 41.83666027622309
    vertex 118.30504991025857 -9.707652786793018 41.25854840515151
  endloop
endfacet
facet normal 0.0 -1.0 -5.551115123125783e-16
  outer loop
    vertex 118.57465744724169 -9.70765278679302 42.549868653950455
    vertex 118.30504991025857 -9.707652786793018 41.25854840515151
    vertex 118.58390905646381 -9.707652786793016 40.58532287239106
  endloop
endfacet
facet normal 0.0 -1.0 -5.551115123125783e-16
  outer loop
    vertex 118.57465744724169 -9.70765278679302 42.549868653950455
    vertex 118.58390905646381 -9.707652786793016 40.58532287239106
    vertex 119.17854821311367 -9.707652786793018 41.762862885441585
  endloop
endfacet
facet normal 0.0 -1.0 -5.551115123125783e-16
  outer loop
    vertex 119.17854821311367 -9.707652786793018 41.762862885441585
    vertex 118.58390905646381 -9.707652786793016 40.58532287239106
    vertex 118.67902271815265 -9.707652786793016 39.86286288544157
  endloop
endfacet
facet normal 0.0 -1.0 -5.551115123125783e-16
  outer loop
    vertex 119.17854821311367 -9.707652786793018 41.762862885441585
    vertex 118.67902271815265 -9.707652786793016 39.86286288544157
    vertex 119.17854821311367 -9.707652786793016 37.96286288544158
  endloop
endfacet
facet normal 0.0 -1.0 -5.551115123125783e-16
  outer loop
    vertex 119.17854821311367 -9.707652786793018 41.762862885441585
    vertex 119.17854821311367 -9.707652786793016 37.96286288544158
    vertex 119.55816981863128 -9.707652786793016 38.879350514052
  endloop
endfacet
facet normal 0.0 -1.0 -5.551115123125783e-16
  outer loop
    vertex 119.17854821311367 -9.707652786793018 41.762862885441585
    vertex 119.55816981863128 -9.707652786793016 38.879350514052
    vertex 119.55816981863126 -9.707652786793018 40.84637525683116
  endloop
endfacet
facet normal 0.0 -1.0 -5.551115123125783e-16
  outer loop
    vertex 119.55816981863126 -9.707652786793018 40.84637525683116
    vertex 119.55816981863128 -9.707652786793016 38.879350514052
    vertex 119.6876516787328 -9.707652786793016 39.86286288544158
  endloop
endfacet
facet normal -0.9659258262890684 -1.4367343154215767e-16 0.2588190451025207
  outer loop
    vertex 112.21713353883435 -9.707652786793018 40.84637525683116
    vertex 112.08765167873281 -9.407652786793017 39.86286288544158
    vertex 112.08765167873281 -9.707652786793016 39.86286288544158
  endloop
endfacet
facet normal -1.0 -9.89331938111227e-32 1.7822219791293813e-16
  outer loop
    vertex 112.08765167873281 -9.407652786793017 39.86286288544158
    vertex 112.21713353883435 -9.707652786793018 40.84637525683116
    vertex 112.21713353883435 -9.407652786793019 40.84637525683116
  endloop
endfacet
facet normal 0.9659258262890684 1.4367343154215774e-16 -0.25881904510252085
  outer loop
    vertex 119.55816981863128 -9.407652786793017 38.879350514052
    vertex 119.17854821311367 -9.707652786793016 37.96286288544158
    vertex 119.17854821311367 -9.407652786793017 37.96286288544158
  endloop
endfacet
facet normal 0.8660254037844387 2.775557561562891e-16 -0.49999999999999994
  outer loop
    vertex 119.17854821311367 -9.707652786793016 37.96286288544158
    vertex 119.55816981863128 -9.407652786793017 38.879350514052
    vertex 119.55816981863128 -9.707652786793016 38.879350514052
  endloop
endfacet
facet normal 1.0 -6.826390372967467e-31 1.229733165599273e-15
  outer loop
    vertex 119.6876516787328 -9.407652786793017 39.86286288544158
    vertex 119.55816981863128 -9.707652786793016 38.879350514052
    vertex 119.55816981863128 -9.407652786793017 38.879350514052
  endloop
endfacet
facet normal 0.9659258262890684 1.4367343154215774e-16 -0.25881904510252085
  outer loop
    vertex 119.55816981863128 -9.707652786793016 38.879350514052
    vertex 119.6876516787328 -9.407652786793017 39.86286288544158
    vertex 119.6876516787328 -9.707652786793016 39.86286288544158
  endloop
endfacet
facet normal 0.9659258262890684 -1.4367343154215774e-16 0.25881904510252085
  outer loop
    vertex 119.55816981863126 -9.407652786793019 40.84637525683116
    vertex 119.6876516787328 -9.707652786793016 39.86286288544158
    vertex 119.6876516787328 -9.407652786793017 39.86286288544158
  endloop
endfacet
facet normal 1.0 -6.826390372967467e-31 1.229733165599273e-15
  outer loop
    vertex 119.6876516787328 -9.707652786793016 39.86286288544158
    vertex 119.55816981863126 -9.407652786793019 40.84637525683116
    vertex 119.55816981863126 -9.707652786793018 40.84637525683116
  endloop
endfacet
facet normal 0.8660254037844386 -2.7755575615628923e-16 0.5000000000000002
  outer loop
    vertex 119.17854821311367 -9.407652786793019 41.762862885441585
    vertex 119.55816981863126 -9.707652786793018 40.84637525683116
    vertex 119.55816981863126 -9.407652786793019 40.84637525683116
  endloop
endfacet
facet normal 0.9659258262890684 -1.4367343154215774e-16 0.25881904510252085
  outer loop
    vertex 119.55816981863126 -9.707652786793018 40.84637525683116
    vertex 119.17854821311367 -9.407652786793019 41.762862885441585
    vertex 119.17854821311367 -9.707652786793018 41.762862885441585
  endloop
endfacet
facet normal 0.7071067811865472 -3.9252311467094393e-16 0.7071067811865478
  outer loop
    vertex 118.57465744724169 -9.40765278679302 42.549868653950455
    vertex 119.17854821311367 -9.707652786793018 41.762862885441585
    vertex 119.17854821311367 -9.407652786793019 41.762862885441585
  endloop
endfacet
facet normal 0.8660254037844386 -2.7755575615628923e-16 0.5000000000000002
  outer loop
    vertex 119.17854821311367 -9.707652786793018 41.762862885441585
    vertex 118.57465744724169 -9.40765278679302 42.549868653950455
    vertex 118.57465744724169 -9.70765278679302 42.549868653950455
  endloop
endfacet
facet normal 0.4999999999999999 -4.80740671595891e-16 0.8660254037844387
  outer loop
    vertex 117.78765167873281 -9.70765278679302 43.15375941982245
    vertex 118.57465744724169 -9.40765278679302 42.549868653950455
    vertex 117.78765167873281 -9.40765278679302 43.15375941982245
  endloop
endfacet
facet normal 0.7071067811865472 -3.9252311467094393e-16 0.7071067811865478
  outer loop
    vertex 118.57465744724169 -9.40765278679302 42.549868653950455
    vertex 117.78765167873281 -9.70765278679302 43.15375941982245
    vertex 118.57465744724169 -9.70765278679302 42.549868653950455
  endloop
endfacet
facet normal 0.25881904510251974 -5.361965462131016e-16 0.9659258262890685
  outer loop
    vertex 116.87116405012239 -9.70765278679302 43.53338102534004
    vertex 117.78765167873281 -9.40765278679302 43.15375941982245
    vertex 116.87116405012239 -9.40765278679302 43.53338102534004
  endloop
endfacet
facet normal 0.4999999999999999 -4.80740671595891e-16 0.8660254037844387
  outer loop
    vertex 117.78765167873281 -9.40765278679302 43.15375941982245
    vertex 116.87116405012239 -9.70765278679302 43.53338102534004
    vertex 117.78765167873281 -9.70765278679302 43.15375941982245
  endloop
endfacet
facet normal -1.0 -9.89331938111227e-32 1.7822219791293813e-16
  outer loop
    vertex 112.08765167873281 -9.707652786793016 39.86286288544158
    vertex 112.21713353883435 -9.407652786793017 38.879350514052
    vertex 112.21713353883435 -9.707652786793016 38.879350514052
  endloop
endfacet
facet normal -0.9659258262890684 1.4367343154215772e-16 -0.2588190451025208
  outer loop
    vertex 112.21713353883435 -9.407652786793017 38.879350514052
    vertex 112.08765167873281 -9.707652786793016 39.86286288544158
    vertex 112.08765167873281 -9.407652786793017 39.86286288544158
  endloop
endfacet
facet normal -0.9659258262890684 1.4367343154215772e-16 -0.2588190451025208
  outer loop
    vertex 112.21713353883435 -9.707652786793016 38.879350514052
    vertex 112.59675514435195 -9.407652786793017 37.96286288544158
    vertex 112.59675514435195 -9.707652786793016 37.96286288544158
  endloop
endfacet
facet normal -0.8660254037844384 2.775557561562894e-16 -0.5000000000000004
  outer loop
    vertex 112.59675514435195 -9.407652786793017 37.96286288544158
    vertex 112.21713353883435 -9.707652786793016 38.879350514052
    vertex 112.21713353883435 -9.407652786793017 38.879350514052
  endloop
endfacet
facet normal -0.8660254037844384 2.775557561562894e-16 -0.5000000000000004
  outer loop
    vertex 112.59675514435195 -9.707652786793016 37.96286288544158
    vertex 113.20064591022393 -9.407652786793017 37.1758571169327
    vertex 113.20064591022393 -9.707652786793016 37.1758571169327
  endloop
endfacet
facet normal -0.7071067811865471 3.9252311467094403e-16 -0.707106781186548
  outer loop
    vertex 113.20064591022393 -9.407652786793017 37.1758571169327
    vertex 112.59675514435195 -9.707652786793016 37.96286288544158
    vertex 112.59675514435195 -9.407652786793017 37.96286288544158
  endloop
endfacet
facet normal -0.49999999999999994 4.80740671595891e-16 -0.8660254037844387
  outer loop
    vertex 113.98765167873282 -9.707652786793016 36.57196635106071
    vertex 113.20064591022393 -9.407652786793017 37.1758571169327
    vertex 113.98765167873282 -9.407652786793015 36.57196635106071
  endloop
endfacet
facet normal -0.7071067811865471 3.9252311467094403e-16 -0.707106781186548
  outer loop
    vertex 113.20064591022393 -9.407652786793017 37.1758571169327
    vertex 113.98765167873282 -9.707652786793016 36.57196635106071
    vertex 113.20064591022393 -9.707652786793016 37.1758571169327
  endloop
endfacet
facet normal 2.76244406765054e-16 -5.551115123125783e-16 1.0
  outer loop
    vertex 115.88765167873281 -9.70765278679302 43.66286288544158
    vertex 116.87116405012239 -9.40765278679302 43.53338102534004
    vertex 115.88765167873281 -9.40765278679302 43.66286288544158
  endloop
endfacet
facet normal 0.25881904510251974 -5.361965462131016e-16 0.9659258262890685
  outer loop
    vertex 116.87116405012239 -9.40765278679302 43.53338102534004
    vertex 115.88765167873281 -9.70765278679302 43.66286288544158
    vertex 116.87116405012239 -9.70765278679302 43.53338102534004
  endloop
endfacet
facet normal 0.0 -1.0 -5.551115123125783e-16
  outer loop
    vertex 113.19139430100182 -10.007652786793017 39.14040289849211
    vertex 113.19139430100182 -10.007652786793017 40.58532287239105
    vertex 113.09628063931297 -10.007652786793017 39.86286288544157
  endloop
endfacet
facet normal 0.0 -1.0 -5.551115123125783e-16
  outer loop
    vertex 113.19139430100182 -10.007652786793017 40.58532287239105
    vertex 113.19139430100182 -10.007652786793017 39.14040289849211
    vertex 113.47025344720706 -10.007652786793017 38.46717736573165
  endloop
endfacet
facet normal 0.0 -1.0 -5.551115123125783e-16
  outer loop
    vertex 113.19139430100182 -10.007652786793017 40.58532287239105
    vertex 113.47025344720706 -10.007652786793017 38.46717736573165
    vertex 113.47025344720706 -10.007652786793017 41.2585484051515
  endloop
endfacet
facet normal 0.0 -1.0 -5.551115123125783e-16
  outer loop
    vertex 113.47025344720706 -10.007652786793017 41.2585484051515
    vertex 113.47025344720706 -10.007652786793017 38.46717736573165
    vertex 113.91385428795131 -10.007652786793017 41.83666027622309
  endloop
endfacet
facet normal 0.0 -1.0 -5.551115123125783e-16
  outer loop
    vertex 113.91385428795131 -10.007652786793017 41.83666027622309
    vertex 113.47025344720706 -10.007652786793017 38.46717736573165
    vertex 113.91385428795131 -10.007652786793017 37.88906549466006
  endloop
endfacet
facet normal 0.0 -1.0 -5.551115123125783e-16
  outer loop
    vertex 113.91385428795131 -10.007652786793017 41.83666027622309
    vertex 113.91385428795131 -10.007652786793017 37.88906549466006
    vertex 114.4919661590229 -10.007652786793017 37.44546465391581
  endloop
endfacet
facet normal 0.0 -1.0 -5.551115123125783e-16
  outer loop
    vertex 113.91385428795131 -10.007652786793017 41.83666027622309
    vertex 114.4919661590229 -10.007652786793017 37.44546465391581
    vertex 114.4919661590229 -10.007652786793019 42.28026111696734
  endloop
endfacet
facet normal 0.0 -1.0 -5.551115123125783e-16
  outer loop
    vertex 114.4919661590229 -10.007652786793019 42.28026111696734
    vertex 114.4919661590229 -10.007652786793017 37.44546465391581
    vertex 115.16519169178332 -10.007652786793019 42.55912026317257
  endloop
endfacet
facet normal 0.0 -1.0 -5.551115123125783e-16
  outer loop
    vertex 115.16519169178332 -10.007652786793019 42.55912026317257
    vertex 114.4919661590229 -10.007652786793017 37.44546465391581
    vertex 115.16519169178335 -10.007652786793017 37.166605507710585
  endloop
endfacet
facet normal 0.0 -1.0 -5.551115123125783e-16
  outer loop
    vertex 115.16519169178332 -10.007652786793019 42.55912026317257
    vertex 115.16519169178335 -10.007652786793017 37.166605507710585
    vertex 115.88765167873281 -10.007652786793019 42.65423392486142
  endloop
endfacet
facet normal 0.0 -1.0 -5.551115123125783e-16
  outer loop
    vertex 115.88765167873281 -10.007652786793019 42.65423392486142
    vertex 115.16519169178335 -10.007652786793017 37.166605507710585
    vertex 115.88765167873281 -10.007652786793017 37.07149184602173
  endloop
endfacet
facet normal 0.0 -1.0 -5.551115123125783e-16
  outer loop
    vertex 115.88765167873281 -10.007652786793019 42.65423392486142
    vertex 115.88765167873281 -10.007652786793017 37.07149184602173
    vertex 116.61011166568228 -10.007652786793019 42.55912026317257
  endloop
endfacet
facet normal 0.0 -1.0 -5.551115123125783e-16
  outer loop
    vertex 116.61011166568228 -10.007652786793019 42.55912026317257
    vertex 115.88765167873281 -10.007652786793017 37.07149184602173
    vertex 116.61011166568228 -10.007652786793017 37.166605507710585
  endloop
endfacet
facet normal 0.0 -1.0 -5.551115123125783e-16
  outer loop
    vertex 116.61011166568228 -10.007652786793019 42.55912026317257
    vertex 116.61011166568228 -10.007652786793017 37.166605507710585
    vertex 117.28333719844274 -10.007652786793017 37.44546465391581
  endloop
endfacet
facet normal 0.0 -1.0 -5.551115123125783e-16
  outer loop
    vertex 116.61011166568228 -10.007652786793019 42.55912026317257
    vertex 117.28333719844274 -10.007652786793017 37.44546465391581
    vertex 117.28333719844274 -10.007652786793019 42.280261116967345
  endloop
endfacet
facet normal 0.0 -1.0 -5.551115123125783e-16
  outer loop
    vertex 117.28333719844274 -10.007652786793019 42.280261116967345
    vertex 117.28333719844274 -10.007652786793017 37.44546465391581
    vertex 117.86144906951432 -10.007652786793017 41.83666027622309
  endloop
endfacet
facet normal 0.0 -1.0 -5.551115123125783e-16
  outer loop
    vertex 117.86144906951432 -10.007652786793017 41.83666027622309
    vertex 117.28333719844274 -10.007652786793017 37.44546465391581
    vertex 117.86144906951432 -10.007652786793017 37.889065494660066
  endloop
endfacet
facet normal 0.0 -1.0 -5.551115123125783e-16
  outer loop
    vertex 117.86144906951432 -10.007652786793017 41.83666027622309
    vertex 117.86144906951432 -10.007652786793017 37.889065494660066
    vertex 118.30504991025857 -10.007652786793017 38.46717736573165
  endloop
endfacet
facet normal 0.0 -1.0 -5.551115123125783e-16
  outer loop
    vertex 117.86144906951432 -10.007652786793017 41.83666027622309
    vertex 118.30504991025857 -10.007652786793017 38.46717736573165
    vertex 118.30504991025857 -10.007652786793017 41.25854840515151
  endloop
endfacet
facet normal 0.0 -1.0 -5.551115123125783e-16
  outer loop
    vertex 118.30504991025857 -10.007652786793017 41.25854840515151
    vertex 118.30504991025857 -10.007652786793017 38.46717736573165
    vertex 118.58390905646381 -10.007652786793017 39.14040289849211
  endloop
endfacet
facet normal 0.0 -1.0 -5.551115123125783e-16
  outer loop
    vertex 118.30504991025857 -10.007652786793017 41.25854840515151
    vertex 118.58390905646381 -10.007652786793017 39.14040289849211
    vertex 118.58390905646381 -10.007652786793017 40.58532287239106
  endloop
endfacet
facet normal 0.0 -1.0 -5.551115123125783e-16
  outer loop
    vertex 118.58390905646381 -10.007652786793017 40.58532287239106
    vertex 118.58390905646381 -10.007652786793017 39.14040289849211
    vertex 118.67902271815265 -10.007652786793017 39.86286288544157
  endloop
endfacet
facet normal -0.7071067811865485 -3.925231146709433e-16 0.7071067811865467
  outer loop
    vertex 113.20064591022393 -9.70765278679302 42.549868653950455
    vertex 113.98765167873282 -9.40765278679302 43.15375941982244
    vertex 113.20064591022393 -9.40765278679302 42.549868653950455
  endloop
endfacet
facet normal -0.5000000000000013 -4.807406715958906e-16 0.866025403784438
  outer loop
    vertex 113.98765167873282 -9.40765278679302 43.15375941982244
    vertex 113.20064591022393 -9.70765278679302 42.549868653950455
    vertex 113.98765167873282 -9.70765278679302 43.15375941982244
  endloop
endfacet
facet normal 2.6733329686940717e-16 5.551115123125783e-16 -1.0
  outer loop
    vertex 115.88765167873281 -9.707652786793016 36.06286288544158
    vertex 114.90413930734323 -9.407652786793015 36.19234474554312
    vertex 115.88765167873281 -9.407652786793015 36.06286288544158
  endloop
endfacet
facet normal -0.25881904510252085 5.361965462131015e-16 -0.9659258262890684
  outer loop
    vertex 114.90413930734323 -9.407652786793015 36.19234474554312
    vertex 115.88765167873281 -9.707652786793016 36.06286288544158
    vertex 114.90413930734323 -9.707652786793016 36.19234474554312
  endloop
endfacet
facet normal -0.8660254037844386 -2.775557561562892e-16 0.5000000000000001
  outer loop
    vertex 112.59675514435195 -9.707652786793018 41.76286288544158
    vertex 112.21713353883435 -9.407652786793019 40.84637525683116
    vertex 112.21713353883435 -9.707652786793018 40.84637525683116
  endloop
endfacet
facet normal -0.9659258262890684 -1.4367343154215767e-16 0.2588190451025207
  outer loop
    vertex 112.21713353883435 -9.407652786793019 40.84637525683116
    vertex 112.59675514435195 -9.707652786793018 41.76286288544158
    vertex 112.59675514435195 -9.407652786793019 41.76286288544158
  endloop
endfacet
facet normal -0.5000000000000013 -4.807406715958906e-16 0.866025403784438
  outer loop
    vertex 113.98765167873282 -9.70765278679302 43.15375941982244
    vertex 114.90413930734323 -9.40765278679302 43.53338102534004
    vertex 113.98765167873282 -9.40765278679302 43.15375941982244
  endloop
endfacet
facet normal -0.2588190451025207 -5.361965462131015e-16 0.9659258262890684
  outer loop
    vertex 114.90413930734323 -9.40765278679302 43.53338102534004
    vertex 113.98765167873282 -9.70765278679302 43.15375941982244
    vertex 114.90413930734323 -9.70765278679302 43.53338102534004
  endloop
endfacet
facet normal -0.7071067811865485 -3.925231146709433e-16 0.7071067811865467
  outer loop
    vertex 113.20064591022393 -9.70765278679302 42.549868653950455
    vertex 112.59675514435195 -9.407652786793019 41.76286288544158
    vertex 112.59675514435195 -9.707652786793018 41.76286288544158
  endloop
endfacet
facet normal -0.8660254037844386 -2.775557561562892e-16 0.5000000000000001
  outer loop
    vertex 112.59675514435195 -9.407652786793019 41.76286288544158
    vertex 113.20064591022393 -9.70765278679302 42.549868653950455
    vertex 113.20064591022393 -9.40765278679302 42.549868653950455
  endloop
endfacet
facet normal -0.25881904510252085 5.361965462131015e-16 -0.9659258262890684
  outer loop
    vertex 114.90413930734323 -9.707652786793016 36.19234474554312
    vertex 113.98765167873282 -9.407652786793015 36.57196635106071
    vertex 114.90413930734323 -9.407652786793015 36.19234474554312
  endloop
endfacet
facet normal -0.49999999999999994 4.80740671595891e-16 -0.8660254037844387
  outer loop
    vertex 113.98765167873282 -9.407652786793015 36.57196635106071
    vertex 114.90413930734323 -9.707652786793016 36.19234474554312
    vertex 113.98765167873282 -9.707652786793016 36.57196635106071
  endloop
endfacet
endsolid Rasp Pi TFT
